<svg xmlns="http://www.w3.org/2000/svg" width="975" height="780" fill="none"><path fill="#505F98" d="M182.709 688.613c-46.449 4.67-94.323 9.806-135.197 32.651-5.47 3.064-11.025 6.678-14.043 12.194-6.058 11.095.817 25.719 11.486 32.397 10.67 6.678 23.832 7.439 36.388 7.989 223.567 9.742 447.469 5.917 671.225 2.113 64.978-1.099 130.984-2.367 193.258-21.239 11.193-3.381 23.497-8.453 27.71-19.506 5.513-14.455-7.064-30.475-21.736-34.976-14.673-4.501-30.33-1.141-45.506.824-52.695 6.826-105.852-3.614-158.316-11.961-102.708-16.315-209.272-29.587-313.3-32.06-35.466-.824-65.754 11.476-100.465 16.337-50.117 7.058-101.114 10.165-151.504 15.237Z" opacity=".24"/><path fill="#fff" d="M0 255.326 115.83 19.408l68.986 33.782-115.83 235.918L0 255.326Z"/><path fill="#505F98" d="M26.845 248.055 40.96 219.22l46.464 22.683-14.114 28.835-46.464-22.683Z"/><path fill="url(#a)" d="M26.845 248.055 40.96 219.22l46.464 22.683-14.114 28.835-46.464-22.683Z"/><path fill="#505F98" d="m40.96 219.445 14.114-28.835 46.464 22.683-14.113 28.835-46.464-22.683Z"/><path fill="url(#b)" d="m40.96 219.445 14.114-28.835 46.464 22.683-14.113 28.835-46.464-22.683Z"/><path fill="#505F98" d="m55.057 190.826 14.114-28.835 46.464 22.683-14.114 28.835-46.464-22.683Z"/><path fill="url(#c)" d="m55.057 190.826 14.114-28.835 46.464 22.683-14.114 28.835-46.464-22.683Z"/><path fill="#505F98" d="m69.194 162.237 14.113-28.835 46.464 22.683-14.113 28.835-46.464-22.683Z"/><path fill="url(#d)" d="m69.194 162.237 14.113-28.835 46.464 22.683-14.113 28.835-46.464-22.683Z"/><path fill="#505F98" d="m83.3 133.599 14.113-28.835 46.464 22.683-14.113 28.835L83.3 133.599Z"/><path fill="#505F98" d="m97.415 105.01 14.114-28.835 46.464 22.683-14.114 28.835-46.464-22.683Z"/><path fill="#505F98" d="m111.512 76.391 14.113-28.835 46.464 22.683-14.113 28.835-46.464-22.683Z"/><path fill="url(#e)" d="m95.827 108.598 14.114-28.835 46.464 22.683-14.114 28.835-46.464-22.683Z"/><path fill="url(#f)" d="m109.952 79.97 14.113-28.835 46.465 22.682-14.114 28.835-46.464-22.683Z"/><path fill="#505F98" d="M410.468 573h98.068v82h-98.068v-82Z"/><path fill="url(#g)" d="M410.468 573h98.068v82h-98.068v-82Z"/><path fill="#505F98" d="M202.324 240.37a9.37 9.37 0 0 1 9.37-9.37h499.619a9.37 9.37 0 0 1 9.37 9.37v336.26a9.37 9.37 0 0 1-9.37 9.37H211.694a9.37 9.37 0 0 1-9.37-9.37V240.37Z"/><path fill="url(#h)" d="M703.671 260.438v294.124a18.381 18.381 0 0 1-5.347 13.026 18.352 18.352 0 0 1-12.99 5.412H233.671a18.37 18.37 0 0 1-12.984-5.418 18.403 18.403 0 0 1-5.354-13.02V260.438a18.403 18.403 0 0 1 5.354-13.02A18.37 18.37 0 0 1 233.671 242h451.663a18.352 18.352 0 0 1 12.99 5.412 18.381 18.381 0 0 1 5.347 13.026Z" opacity=".65"/><path fill="#505F98" d="M365.437 645H571.58v21H365.437v-21Z"/><path fill="url(#i)" d="M410.468 633h98.068v12h-98.068v-12Z"/><path fill="#505F98" fill-rule="evenodd" d="M565.576 59.241v20.474l-12.709.104a57.146 57.146 0 0 1-10.539 26.362l10.855 11.17-14.88 14.249-10.686-11.022a59.2 59.2 0 0 1-21.856 9.136V143H485.19v-12.971a58.037 58.037 0 0 1-24.47-9.535l-8.936 8.822-14.564-14.669 8.873-8.654a57.646 57.646 0 0 1-10.369-26.278h-14.248V59.24h14.754a57.183 57.183 0 0 1 10.538-22.422l-8.241-8.487 14.88-14.25 8.43 8.738a55.949 55.949 0 0 1 23.185-8.738V0h20.57v14.396a59.327 59.327 0 0 1 23.184 10.08l10.539-10.31 14.479 14.543-10.538 10.478a57.757 57.757 0 0 1 8.641 20.054h13.679ZM459.435 72.15c-.024 19.061 15.499 34.532 34.671 34.555a34.75 34.75 0 0 0 24.576-10.06 34.352 34.352 0 0 0 10.179-24.412c.023-19.06-15.5-34.532-34.671-34.555-19.172-.023-34.732 15.41-34.755 34.472Z" clip-rule="evenodd"/><path fill="#505F98" fill-rule="evenodd" d="m641.628 93.354-.918 12.042-7.512-.458a33.647 33.647 0 0 1-7.283 15.02l5.864 7.063-9.349 7.708-5.76-6.937a34.77 34.77 0 0 1-13.189 4.396l-.605 7.812-12.041-.896.585-7.625a33.985 33.985 0 0 1-13.899-6.687l-5.634 4.791-7.867-9.187 5.571-4.708a33.956 33.956 0 0 1-4.904-15.896l-8.117-.625.897-12.021 8.618.646a34.033 34.033 0 0 1 7.117-12.73l-4.445-5.354L578.106 62l4.528 5.5a33.015 33.015 0 0 1 13.919-4.167l.626-8.333 12.041.896-.647 8.479a34.414 34.414 0 0 1 13.064 6.938l6.615-5.605 7.846 9.188-6.677 5.687a33.53 33.53 0 0 1 4.173 12.188l8.034.583Zm-62.697 2.889c-.855 11.193 7.538 20.96 18.749 21.819a20.35 20.35 0 0 0 14.841-4.834 20.28 20.28 0 0 0 7.029-13.915c.842-11.194-7.561-20.952-18.773-21.8-11.212-.847-20.991 7.537-21.846 18.73Z" clip-rule="evenodd"/><path fill="#505F98" d="M795.735 206.966v483.853c-.034 10.027-8.081 18.147-18.017 18.181h-2.075c-9.918-.046-17.934-8.173-17.934-18.181V206.966L775.788 159l19.947 47.966Z"/><path fill="url(#j)" d="M774.721 207h21.014v463h-21.014V207Z"/><path fill="url(#k)" d="m795.735 207-38.026-.731 11.718-32.065L775.709 157l6.903 17.204L795.735 207Z" opacity=".65"/><path fill="url(#l)" d="M782.726 175h-13.009l6.199-17 6.81 17Z"/><path fill="url(#m)" d="M755.708 663h40.027v17h-40.027v-17Z"/><path fill="url(#n)" d="M795.735 676v15.38c-.034 10.269-8.081 18.585-18.017 18.62h-2.075c-9.918-.047-17.934-8.37-17.934-18.62V676h38.026Z"/><path fill="url(#o)" d="M703.671 260.513V267H215.333v-6.487a18.518 18.518 0 0 1 5.354-13.073 18.335 18.335 0 0 1 12.985-5.44h451.66a18.32 18.32 0 0 1 12.992 5.434 18.496 18.496 0 0 1 5.347 13.079Z"/><path fill="url(#p)" d="M225.34 299h47.033v227H225.34V299Z"/><path fill="url(#q)" d="M343.422 315h221.153v209H343.422V315Z"/><path fill="url(#r)" d="M394.457 413h7.005v9h-7.005v-9Z"/><path fill="url(#s)" d="M394.457 371h7.005v9h-7.005v-9Z"/><path fill="url(#t)" d="M299.391 413h7.005v9h-7.005v-9Z"/><path fill="url(#u)" d="M299.391 371h7.005v9h-7.005v-9Z"/><path fill="url(#v)" d="M394.457 326h7.005v9h-7.005v-9Z"/><path fill="url(#w)" d="M300.392 326h7.005v9h-7.005v-9Z"/><path fill="url(#x)" d="M348.425 326h7.005v9h-7.005v-9Z"/><path fill="url(#y)" d="M348.425 413h7.005v9h-7.005v-9Z"/><path fill="#505F98" fill-rule="evenodd" d="M312.401 411h78.054v-73h-78.054v73Zm70.192-7.718h-62.33v-57.626h62.33v57.626Z" clip-rule="evenodd"/><path fill="url(#z)" fill-rule="evenodd" d="M312.401 411h78.054v-73h-78.054v73Zm70.192-7.718h-62.33v-57.626h62.33v57.626Z" clip-rule="evenodd"/><path fill="url(#A)" d="M596.597 279h100.069v100H596.597V279Z"/><path fill="url(#B)" d="M596.597 389h100.069v100H596.597V389Z"/><path fill="url(#C)" d="M225.34 298h47.033v13H225.34v-13Z" opacity=".65"/><path fill="#fff" d="M22.304 229.827 227.433 65.293l48.112 59.825L70.416 289.652l-48.112-59.825Z"/><path fill="#505F98" d="m51.028 234.455 25.067-20.22 32.583 40.287-25.068 20.22-32.582-40.287Z"/><path fill="url(#D)" d="m51.028 234.455 25.067-20.22 32.583 40.287-25.068 20.22-32.582-40.287Z"/><path fill="#505F98" d="m74.646 214.689 25.032-20.129 32.435 40.23-25.032 20.129-32.435-40.23Z"/><path fill="url(#E)" d="m74.646 214.689 25.032-20.129 32.435 40.23-25.032 20.129-32.435-40.23Z"/><path fill="#505F98" d="m99.59 194.761 25.032-20.128 32.435 40.23-25.033 20.128-32.434-40.23Z"/><path fill="url(#F)" d="m99.59 194.761 25.032-20.128 32.435 40.23-25.033 20.128-32.434-40.23Z"/><path fill="#505F98" d="m124.517 174.847 25.032-20.129 32.435 40.23-25.032 20.129-32.435-40.23Z"/><path fill="url(#G)" d="m124.517 174.847 25.032-20.129 32.435 40.23-25.032 20.129-32.435-40.23Z"/><path fill="#505F98" d="m150.637 154.389 25.068-20.22 32.582 40.287-25.067 20.22-32.583-40.287ZM175.717 133.99l25.068-20.22 32.582 40.287-25.067 20.22-32.583-40.287Z"/><path fill="#505F98" d="m199.325 115.051 25.032-20.128 32.435 40.23-25.032 20.128-32.435-40.23Z"/><path fill="url(#H)" d="M229.343 158.218 208.244 175l-31.938-40.218L197.405 118l31.938 40.218Z"/><path fill="url(#I)" d="M196.368 117.648 221.4 97.519l32.435 40.23-25.032 20.129-32.435-40.23Z"/><path fill="#505F98" d="M145.285 239.15V362H124.27V239.15c0-4.54 2.819-8.58 7.019-10.061v-12.264c0-2.113 1.675-3.825 3.743-3.825 2.067 0 3.743 1.712 3.743 3.825v12.472c3.919 1.638 6.488 5.526 6.51 9.853Z"/><path fill="url(#J)" d="M145.285 239.15V362H124.27V239.15c0-4.54 2.819-8.58 7.019-10.061v-12.264c0-2.113 1.675-3.825 3.743-3.825 2.067 0 3.743 1.712 3.743 3.825v12.472c3.919 1.638 6.488 5.526 6.51 9.853Z"/><path fill="#505F98" d="M111.261 319.245a2.245 2.245 0 0 1 2.245-2.245h45.545a2.245 2.245 0 0 1 2.245 2.245v4.51a2.245 2.245 0 0 1-2.245 2.245h-45.545a2.245 2.245 0 0 1-2.245-2.245v-4.51Z"/><path fill="#505F98" d="M135.967 399c-8.573 0-15.7-12.815-15.7-21.366V321h31.022v56.634c0 8.551-6.77 21.366-15.322 21.366Z"/><path fill="url(#K)" d="M111.261 319.245a2.245 2.245 0 0 1 2.245-2.245h45.545a2.245 2.245 0 0 1 2.245 2.245v4.51a2.245 2.245 0 0 1-2.245 2.245h-45.545a2.245 2.245 0 0 1-2.245-2.245v-4.51Z"/><path fill="url(#L)" d="M135.967 399c-8.573 0-15.7-12.634-15.7-21.063V326h31.022v51.937c0 8.429-6.77 21.063-15.322 21.063Z"/><path fill="#28353D" d="M336.059 459c-.673-3.564-1.099-8.61.195-8.957 2.728-.768-.195 8.957-.195 8.957Z"/><path fill="#606161" d="M479.318 654.507c-.486 12.595-10.248 58.881-10.565 71.497 0 4.198 1.12 10.643-.233 14.694-2.789 8.586-12.678 7.41-13.967 2.351l-.486-2.519c-4.585-24.518 2.789-52.332 0-84.344-1.669-19.543-9.445-57.223-14.538-57.475-2.684 0-63.941 129.14-69.266 137.096-2.62 4.01-9.995 3.38-13.566 6.613-3.571 3.232 29.752-97.905 43.719-151.35a169.07 169.07 0 0 0 6.339-33.818c.381-6.612-1.753-8.837 4.353-10.789 4.226-1.344 10.08-.966 14.602-1.281 4.923-.378 50.713-.462 50.713 2.771-.444 17.549 4.078 77.459 2.895 106.554Z"/><path fill="url(#M)" d="M479.318 654.507c-.486 12.595-10.248 58.881-10.565 71.497 0 4.198 1.12 10.643-.233 14.694-2.789 8.586-12.678 7.41-13.967 2.351l-.486-2.519c-4.585-24.518 2.789-52.332 0-84.344-1.669-19.543-9.445-57.223-14.538-57.475-2.684 0-63.941 129.14-69.266 137.096-2.62 4.01-9.995 3.38-13.566 6.613-3.571 3.232 29.752-97.905 43.719-151.35a169.07 169.07 0 0 0 6.339-33.818c.381-6.612-1.753-8.837 4.353-10.789 4.226-1.344 10.08-.966 14.602-1.281 4.923-.378 50.713-.462 50.713 2.771-.444 17.549 4.078 77.459 2.895 106.554Z"/><path fill="#FFCD9C" d="M425.245 386.148c-.385-3.985-2.268-6.148-4.107-6.148-1.84 0-2.974 2.12-2.589 6.148.087 2.974 2.331 5.449 5.305 5.852 1.862 0 1.798-1.866 1.391-5.852ZM457.639 386.159c.25-3.993 2.087-6.159 3.986-6.159s3.13 2.124 2.838 6.159c-.026 3.014-2.272 5.528-5.217 5.841-1.878 0-1.899-1.848-1.607-5.841Z"/><path fill="#F4AD7D" d="M461.363 403.672c-.259 2.105-9.174 11.328-19.319 11.328s-18.521-8.423-20.291-11.792c-1.77-3.369 5.354-46.703 9.477-50.324 4.122-3.622 20.83-1.243 22.233.674 3.367 4.527 9.001 41.712 7.9 50.114Z"/><path fill="#FFCD9C" d="M457.169 370.977c-1.379.662-6.794-13.135-7.93-15.452-1.136-2.317-.954-4.696.426-5.358 1.379-.662 3.407.704 4.543 3 1.136 2.296 4.32 17.169 2.961 17.81ZM426.799 369.987c-1.43-.486 2.357-14.808 3.183-17.284.826-2.475 2.68-4.104 4.03-3.617 1.35.487 1.914 2.898 1.088 5.395-.826 2.496-6.951 15.993-8.301 15.506Z"/><path fill="#F4AD7D" d="M432.476 402h21.764l3.261 20.622c-11.856 6.383-18.769 5.679-28.019-1.408L432.476 402Z"/><path fill="#F4AD7D" d="M441.49 406.13c0-.38.905-.7 2.001-.7 1.096 0 2.002.32 2.002.7 0 .38-.882.44-2.002.44-1.12 0-2.001-.04-2.001-.44Z"/><path fill="#606161" d="M462.523 396.808c.824-4.914 2.168-40.1-1.127-44.757-3.296-4.657-23.024-7.67-26.016-6.943-6.699 1.623-5.528 6.409-5.528 6.409a11.67 11.67 0 0 0-5.658 1.559c-2.298 1.539-7.133 23.714-3.274 40.484 1.735 7.542 8.564 14.1 20.357 14.421 14.525.384 20.249-5.085 21.246-11.173Z"/><path fill="#606161" d="M435.462 346.762a7.47 7.47 0 0 1 5.599-1.721 48.524 48.524 0 0 1 17.935 3.335 22.165 22.165 0 0 1 8.42 5.332 11.027 11.027 0 0 1 2.968 9.326c-1.053 5.013-6.315 8.114-8.041 12.936-1.389 3.867-.4 7.605-.358 11.493a58.426 58.426 0 0 1-.674 9.389c-.968 6.054-6.504 11.492-20.713 11.131-11.451-.319-18.082-6.84-19.766-14.339a82.954 82.954 0 0 1 1.747-37.429 81.945 81.945 0 0 0 18.819 2.124 80.43 80.43 0 0 0 19.934-2.337c1.116 6.501 1.095 19.522.737 29.251"/><path fill="#505F98" d="M400.333 418.954a20.644 20.644 0 0 0-9.625 3.326c-4.938 3.891-5.313 11.15-5.229 17.468a148.256 148.256 0 0 0 1.812 26.149c1.479 7.929 4.167 15.544 6.375 23.305a151.496 151.496 0 0 1 5.438 38.764c0 7.196-.125 15.104 4.354 20.731 4.896 6.109 13.563 7.301 21.355 7.741 11.063.648 22.167.732 33.23.271 7.417-.334 15.313-1.066 21.188-5.627 4.688-3.64 15.667-126.794 7.146-129.911-8.521-3.117-17.688-3.912-26.73-4.665-20.271-1.715-39.355-3.075-59.314 2.448Z"/><path fill="url(#N)" d="M464.153 674.291c-1.087 13.964-3.679 64.709-3.679 64.709l-6.605-.23c-4.536-24.38 2.759-52.038 0-83.871-1.651-19.434-9.343-56.903-14.381-57.153 1.505-12.525 9.971-10.646 9.971-10.646a183.051 183.051 0 0 1 15.864 29.078c5.038 13.192-.062 44.085-1.17 58.113Z"/><path fill="#505F98" d="M339.796 740.024a6.515 6.515 0 0 0-2.252 3.001 4.6 4.6 0 0 0 .271 2.94 8.57 8.57 0 0 0 5.984 4.585c2.577.49 5.215.581 7.819.268l8.341-.556a23.362 23.362 0 0 0 6.256-1.007 7.664 7.664 0 0 0 4.629-3.947c.491-1.392.683-2.87.563-4.339 0-6.805-2.419-12.335-9.967-10.67a50.008 50.008 0 0 0-21.644 9.725ZM478.334 743.063a5.947 5.947 0 0 1 2.067 2.734 4.14 4.14 0 0 1-.239 2.649c-1.063 2.138-3.093 3.668-5.484 4.133a23.145 23.145 0 0 1-7.159.255l-7.572-.509a21.448 21.448 0 0 1-5.679-.89 6.957 6.957 0 0 1-4.222-3.582 9.494 9.494 0 0 1-.522-3.921c0-6.147 2.176-11.212 9.117-9.644a45.86 45.86 0 0 1 19.693 8.775ZM487.522 421s32.715 19.163 42.541 43.389c9.825 24.225-32.18 82.611-32.18 82.611l-8.988-9.186s21.925-44.055 18.535-55.074c-3.39-11.019-16.669-21.288-16.669-21.288L487.522 421ZM394.457 458.859s-45.488 20.381-63.973 10.379c-18.485-10.001.545-60.238.545-60.238l12.38 4.202s-10.344 25.613 1.489 29.416c11.834 3.803 47.293-21.18 47.293-21.18l2.266 37.421Z"/><path fill="#F4AD7D" d="M480.098 545.976a9.148 9.148 0 0 0-3.085 3.321 7.541 7.541 0 0 0-.453 3.522c-.08 2.89 1.235 5.66 3.581 7.548a12.815 12.815 0 0 0 5.393 1.49c1.163.191 2.353.191 3.516 0 1.187-.211 2.178-.969 2.632-2.013a7.542 7.542 0 0 0 .195-2.013c.151-3.321 2.653-6.038 4.724-8.755.5-.525.823-1.176.928-1.872a3.304 3.304 0 0 0-.82-2.113c-1.402-1.892-4.876-5.374-7.659-5.073-2.782.302-6.795 4.308-8.952 5.958ZM351.216 401.435a6.945 6.945 0 0 0 1.187-2.737c.151-1.015-.386-2.011-1.34-2.487-1.516-.564-3.318.919-4.812.293a3.286 3.286 0 0 1-1.23-1.129 15.284 15.284 0 0 1-2.923-8.232 15.936 15.936 0 0 0-.439-4.68c-.444-1.577-2.028-2.614-3.735-2.445-1.406.313-2.197 1.671-3.076 2.758s-2.637 2.382-3.779 3.74a17.882 17.882 0 0 0-3.23 9.382c-.615 4.179-1.011 8.963 2.065 11.972 2.373 2.319 9.602 5.057 12.919 3.824 3.67-1.379 6.548-7.25 8.393-10.259Z"/><defs><linearGradient id="a" x1="151.033" x2="215.787" y1="315.166" y2="186.6" gradientUnits="userSpaceOnUse"><stop stop-color="#010101" stop-opacity=".01"/><stop offset=".95" stop-color="#010101"/></linearGradient><linearGradient id="b" x1="206.194" x2="299.048" y1="311.365" y2="129.775" gradientUnits="userSpaceOnUse"><stop stop-color="#010101" stop-opacity=".01"/><stop offset=".95" stop-color="#010101"/></linearGradient><linearGradient id="c" x1="326.176" x2="463.53" y1="320.092" y2="9.948" gradientUnits="userSpaceOnUse"><stop stop-color="#010101" stop-opacity=".01"/><stop offset=".95" stop-color="#010101"/></linearGradient><linearGradient id="d" x1="454.01" x2="658.94" y1="336.583" y2="-110.821" gradientUnits="userSpaceOnUse"><stop stop-color="#010101" stop-opacity=".01"/><stop offset=".36" stop-color="#010101" stop-opacity=".36"/><stop offset=".95" stop-color="#010101"/></linearGradient><linearGradient id="e" x1="305.357" x2="422.517" y1="231.564" y2="-10.031" gradientUnits="userSpaceOnUse"><stop stop-color="#fff" stop-opacity=".01"/><stop offset=".07" stop-color="#fff" stop-opacity=".22"/><stop offset=".16" stop-color="#fff" stop-opacity=".45"/><stop offset=".25" stop-color="#fff" stop-opacity=".65"/><stop offset=".33" stop-color="#fff" stop-opacity=".8"/><stop offset=".4" stop-color="#fff" stop-opacity=".91"/><stop offset=".46" stop-color="#fff" stop-opacity=".98"/><stop offset=".51" stop-color="#fff"/></linearGradient><linearGradient id="f" x1="227.281" x2="291.478" y1="178.444" y2="42.555" gradientUnits="userSpaceOnUse"><stop stop-color="#fff" stop-opacity=".01"/><stop offset=".07" stop-color="#fff" stop-opacity=".22"/><stop offset=".16" stop-color="#fff" stop-opacity=".45"/><stop offset=".25" stop-color="#fff" stop-opacity=".65"/><stop offset=".33" stop-color="#fff" stop-opacity=".8"/><stop offset=".4" stop-color="#fff" stop-opacity=".91"/><stop offset=".46" stop-color="#fff" stop-opacity=".98"/><stop offset=".51" stop-color="#fff"/></linearGradient><linearGradient id="g" x1="532.603" x2="543.024" y1="641.322" y2="514.584" gradientUnits="userSpaceOnUse"><stop stop-color="#010101" stop-opacity=".01"/><stop offset=".95" stop-color="#010101"/></linearGradient><linearGradient id="h" x1="130.89" x2="128.175" y1="178.517" y2="628.071" gradientUnits="userSpaceOnUse"><stop stop-color="#fff" stop-opacity=".01"/><stop offset=".07" stop-color="#fff" stop-opacity=".22"/><stop offset=".16" stop-color="#fff" stop-opacity=".45"/><stop offset=".25" stop-color="#fff" stop-opacity=".65"/><stop offset=".33" stop-color="#fff" stop-opacity=".8"/><stop offset=".4" stop-color="#fff" stop-opacity=".91"/><stop offset=".46" stop-color="#fff" stop-opacity=".98"/><stop offset=".51" stop-color="#fff"/></linearGradient><linearGradient id="i" x1="-122.764" x2="-122.664" y1="616.073" y2="758.306" gradientUnits="userSpaceOnUse"><stop stop-color="#010101" stop-opacity=".01"/><stop offset=".95" stop-color="#010101"/></linearGradient><linearGradient id="j" x1="753.728" x2="1059.92" y1="3809.09" y2="3809.14" gradientUnits="userSpaceOnUse"><stop stop-color="#010101" stop-opacity=".01"/><stop offset=".95" stop-color="#010101"/></linearGradient><linearGradient id="k" x1="763.125" x2="793.463" y1="201.349" y2="202.669" gradientUnits="userSpaceOnUse"><stop stop-color="#fff" stop-opacity=".01"/><stop offset=".07" stop-color="#fff" stop-opacity=".22"/><stop offset=".16" stop-color="#fff" stop-opacity=".45"/><stop offset=".25" stop-color="#fff" stop-opacity=".65"/><stop offset=".33" stop-color="#fff" stop-opacity=".8"/><stop offset=".4" stop-color="#fff" stop-opacity=".91"/><stop offset=".46" stop-color="#fff" stop-opacity=".98"/><stop offset=".51" stop-color="#fff"/></linearGradient><linearGradient id="l" x1="771.586" x2="781.937" y1="173.191" y2="173.64" gradientUnits="userSpaceOnUse"><stop stop-color="#010101" stop-opacity=".01"/><stop offset=".95" stop-color="#010101"/></linearGradient><linearGradient id="m" x1="694.952" x2="695.259" y1="643.811" y2="711.818" gradientUnits="userSpaceOnUse"><stop stop-color="#010101" stop-opacity=".01"/><stop offset=".95" stop-color="#010101"/></linearGradient><linearGradient id="n" x1="763.751" x2="705.414" y1="634.281" y2="706.558" gradientUnits="userSpaceOnUse"><stop stop-color="#010101" stop-opacity=".01"/><stop offset=".95" stop-color="#010101"/></linearGradient><linearGradient id="o" x1="1029.65" x2="1063.83" y1="361.966" y2="-45.145" gradientUnits="userSpaceOnUse"><stop stop-color="#fff" stop-opacity=".01"/><stop offset=".07" stop-color="#fff" stop-opacity=".22"/><stop offset=".16" stop-color="#fff" stop-opacity=".45"/><stop offset=".25" stop-color="#fff" stop-opacity=".65"/><stop offset=".33" stop-color="#fff" stop-opacity=".8"/><stop offset=".4" stop-color="#fff" stop-opacity=".91"/><stop offset=".46" stop-color="#fff" stop-opacity=".98"/><stop offset=".51" stop-color="#fff"/></linearGradient><linearGradient id="p" x1="202.769" x2="340.776" y1="251.87" y2="620.142" gradientUnits="userSpaceOnUse"><stop stop-color="#fff" stop-opacity=".01"/><stop offset=".07" stop-color="#fff" stop-opacity=".22"/><stop offset=".16" stop-color="#fff" stop-opacity=".45"/><stop offset=".25" stop-color="#fff" stop-opacity=".65"/><stop offset=".33" stop-color="#fff" stop-opacity=".8"/><stop offset=".4" stop-color="#fff" stop-opacity=".91"/><stop offset=".46" stop-color="#fff" stop-opacity=".98"/><stop offset=".51" stop-color="#fff"/></linearGradient><linearGradient id="q" x1="306.299" x2="302.974" y1="274.99" y2="557.698" gradientUnits="userSpaceOnUse"><stop stop-color="#fff" stop-opacity=".01"/><stop offset=".07" stop-color="#fff" stop-opacity=".22"/><stop offset=".16" stop-color="#fff" stop-opacity=".45"/><stop offset=".25" stop-color="#fff" stop-opacity=".65"/><stop offset=".33" stop-color="#fff" stop-opacity=".8"/><stop offset=".4" stop-color="#fff" stop-opacity=".91"/><stop offset=".46" stop-color="#fff" stop-opacity=".98"/><stop offset=".51" stop-color="#fff"/></linearGradient><linearGradient id="r" x1="622.134" x2="641.321" y1="466.704" y2="-111.215" gradientUnits="userSpaceOnUse"><stop stop-color="#010101" stop-opacity=".01"/><stop offset=".95" stop-color="#010101"/></linearGradient><linearGradient id="s" x1="621.282" x2="640.47" y1="467.045" y2="-110.875" gradientUnits="userSpaceOnUse"><stop stop-color="#010101" stop-opacity=".01"/><stop offset=".95" stop-color="#010101"/></linearGradient><linearGradient id="t" x1="527.103" x2="546.319" y1="464.354" y2="-113.565" gradientUnits="userSpaceOnUse"><stop stop-color="#010101" stop-opacity=".01"/><stop offset=".95" stop-color="#010101"/></linearGradient><linearGradient id="u" x1="526.251" x2="545.467" y1="464.694" y2="-113.224" gradientUnits="userSpaceOnUse"><stop stop-color="#010101" stop-opacity=".01"/><stop offset=".95" stop-color="#010101"/></linearGradient><linearGradient id="v" x1="620.344" x2="639.56" y1="468.545" y2="-109.373" gradientUnits="userSpaceOnUse"><stop stop-color="#010101" stop-opacity=".01"/><stop offset=".95" stop-color="#010101"/></linearGradient><linearGradient id="w" x1="526.313" x2="545.501" y1="466.236" y2="-111.683" gradientUnits="userSpaceOnUse"><stop stop-color="#010101" stop-opacity=".01"/><stop offset=".95" stop-color="#010101"/></linearGradient><linearGradient id="x" x1="574.303" x2="593.52" y1="467.396" y2="-110.501" gradientUnits="userSpaceOnUse"><stop stop-color="#010101" stop-opacity=".01"/><stop offset=".95" stop-color="#010101"/></linearGradient><linearGradient id="y" x1="576.119" x2="595.336" y1="464.843" y2="-113.075" gradientUnits="userSpaceOnUse"><stop stop-color="#010101" stop-opacity=".01"/><stop offset=".95" stop-color="#010101"/></linearGradient><linearGradient id="z" x1="231.042" x2="463.274" y1="479.399" y2="696.094" gradientUnits="userSpaceOnUse"><stop stop-color="#fff" stop-opacity=".01"/><stop offset=".07" stop-color="#fff" stop-opacity=".22"/><stop offset=".16" stop-color="#fff" stop-opacity=".45"/><stop offset=".25" stop-color="#fff" stop-opacity=".65"/><stop offset=".33" stop-color="#fff" stop-opacity=".8"/><stop offset=".4" stop-color="#fff" stop-opacity=".91"/><stop offset=".46" stop-color="#fff" stop-opacity=".98"/><stop offset=".51" stop-color="#fff"/></linearGradient><linearGradient id="A" x1="579.908" x2="578.123" y1="259.864" y2="395.026" gradientUnits="userSpaceOnUse"><stop stop-color="#fff" stop-opacity=".01"/><stop offset=".07" stop-color="#fff" stop-opacity=".22"/><stop offset=".16" stop-color="#fff" stop-opacity=".45"/><stop offset=".25" stop-color="#fff" stop-opacity=".65"/><stop offset=".33" stop-color="#fff" stop-opacity=".8"/><stop offset=".4" stop-color="#fff" stop-opacity=".91"/><stop offset=".46" stop-color="#fff" stop-opacity=".98"/><stop offset=".51" stop-color="#fff"/></linearGradient><linearGradient id="B" x1="579.908" x2="578.123" y1="369.864" y2="505.026" gradientUnits="userSpaceOnUse"><stop stop-color="#fff" stop-opacity=".01"/><stop offset=".07" stop-color="#fff" stop-opacity=".22"/><stop offset=".16" stop-color="#fff" stop-opacity=".45"/><stop offset=".25" stop-color="#fff" stop-opacity=".65"/><stop offset=".33" stop-color="#fff" stop-opacity=".8"/><stop offset=".4" stop-color="#fff" stop-opacity=".91"/><stop offset=".46" stop-color="#fff" stop-opacity=".98"/><stop offset=".51" stop-color="#fff"/></linearGradient><linearGradient id="C" x1="216.068" x2="216.051" y1="295.281" y2="313.481" gradientUnits="userSpaceOnUse"><stop stop-color="#fff" stop-opacity=".01"/><stop offset=".07" stop-color="#fff" stop-opacity=".22"/><stop offset=".16" stop-color="#fff" stop-opacity=".45"/><stop offset=".25" stop-color="#fff" stop-opacity=".65"/><stop offset=".33" stop-color="#fff" stop-opacity=".8"/><stop offset=".4" stop-color="#fff" stop-opacity=".91"/><stop offset=".46" stop-color="#fff" stop-opacity=".98"/><stop offset=".51" stop-color="#fff"/></linearGradient><linearGradient id="D" x1="135.368" x2="248.799" y1="348.052" y2="258.635" gradientUnits="userSpaceOnUse"><stop stop-color="#010101" stop-opacity=".01"/><stop offset=".95" stop-color="#010101"/></linearGradient><linearGradient id="E" x1="185.207" x2="346.483" y1="367.988" y2="242.867" gradientUnits="userSpaceOnUse"><stop stop-color="#010101" stop-opacity=".01"/><stop offset=".95" stop-color="#010101"/></linearGradient><linearGradient id="F" x1="290.151" x2="546.315" y1="426.751" y2="204.028" gradientUnits="userSpaceOnUse"><stop stop-color="#010101" stop-opacity=".01"/><stop offset=".95" stop-color="#010101"/></linearGradient><linearGradient id="G" x1="398.91" x2="774.593" y1="495.865" y2="177.45" gradientUnits="userSpaceOnUse"><stop stop-color="#010101" stop-opacity=".01"/><stop offset=".36" stop-color="#010101" stop-opacity=".36"/><stop offset=".95" stop-color="#010101"/></linearGradient><linearGradient id="H" x1="247.169" x2="430.108" y1="258.751" y2="127.322" gradientUnits="userSpaceOnUse"><stop stop-color="#fff" stop-opacity=".01"/><stop offset=".07" stop-color="#fff" stop-opacity=".22"/><stop offset=".16" stop-color="#fff" stop-opacity=".45"/><stop offset=".25" stop-color="#fff" stop-opacity=".65"/><stop offset=".33" stop-color="#fff" stop-opacity=".8"/><stop offset=".4" stop-color="#fff" stop-opacity=".91"/><stop offset=".46" stop-color="#fff" stop-opacity=".98"/><stop offset=".51" stop-color="#fff"/></linearGradient><linearGradient id="I" x1="260.782" x2="376.64" y1="256.517" y2="160.658" gradientUnits="userSpaceOnUse"><stop stop-color="#fff" stop-opacity=".01"/><stop offset=".07" stop-color="#fff" stop-opacity=".22"/><stop offset=".16" stop-color="#fff" stop-opacity=".45"/><stop offset=".25" stop-color="#fff" stop-opacity=".65"/><stop offset=".33" stop-color="#fff" stop-opacity=".8"/><stop offset=".4" stop-color="#fff" stop-opacity=".91"/><stop offset=".46" stop-color="#fff" stop-opacity=".98"/><stop offset=".51" stop-color="#fff"/></linearGradient><linearGradient id="J" x1="126.369" x2="164.554" y1="422.745" y2="422.767" gradientUnits="userSpaceOnUse"><stop stop-color="#fff" stop-opacity=".01"/><stop offset=".07" stop-color="#fff" stop-opacity=".22"/><stop offset=".16" stop-color="#fff" stop-opacity=".45"/><stop offset=".25" stop-color="#fff" stop-opacity=".65"/><stop offset=".33" stop-color="#fff" stop-opacity=".8"/><stop offset=".4" stop-color="#fff" stop-opacity=".91"/><stop offset=".46" stop-color="#fff" stop-opacity=".98"/><stop offset=".51" stop-color="#fff"/></linearGradient><linearGradient id="K" x1="53.077" x2="64.728" y1="325.2" y2="363.932" gradientUnits="userSpaceOnUse"><stop stop-color="#010101" stop-opacity=".01"/><stop offset=".95" stop-color="#010101"/></linearGradient><linearGradient id="L" x1="77.875" x2="178.777" y1="473.933" y2="475.976" gradientUnits="userSpaceOnUse"><stop stop-color="#010101" stop-opacity=".01"/><stop offset=".95" stop-color="#010101"/></linearGradient><linearGradient id="M" x1="480.646" x2="384.553" y1="631.512" y2="466.732" gradientUnits="userSpaceOnUse"><stop stop-color="#010101" stop-opacity=".01"/><stop offset=".95" stop-color="#010101"/></linearGradient><linearGradient id="N" x1="481.669" x2="308.783" y1="169.892" y2="174.761" gradientUnits="userSpaceOnUse"><stop stop-color="#010101" stop-opacity=".01"/><stop offset=".95" stop-color="#010101"/></linearGradient></defs></svg>