<svg xmlns="http://www.w3.org/2000/svg" width="646" height="780" fill="none"><path fill="#505F98" d="M183.078 688.613c-46.449 4.67-94.324 9.806-135.197 32.651-5.47 3.064-11.025 6.678-14.044 12.194-6.057 11.095.818 25.719 11.487 32.397 10.669 6.678 23.832 7.439 36.388 7.989 223.567 9.742 447.469 5.917 671.225 2.113 64.978-1.099 130.983-2.367 193.258-21.239 11.193-3.381 23.497-8.453 27.71-19.506 5.512-14.455-7.064-30.475-21.736-34.976-14.673-4.501-30.331-1.141-45.506.824-52.695 6.826-105.852-3.614-158.317-11.961-102.707-16.315-209.271-29.587-313.299-32.06-35.466-.824-65.754 11.476-100.465 16.337-50.117 7.058-101.115 10.165-151.504 15.237Z" opacity=".24"/><path fill="#fff" d="M.369 255.326 116.198 19.408l68.987 33.782-115.83 235.918L.37 255.326Z"/><path fill="#505F98" d="m27.214 248.055 14.113-28.835 46.465 22.683-14.114 28.835-46.464-22.683Z"/><path fill="url(#a)" d="m27.214 248.055 14.113-28.835 46.465 22.683-14.114 28.835-46.464-22.683Z"/><path fill="#505F98" d="m41.33 219.445 14.113-28.835 46.464 22.683-14.113 28.835-46.464-22.683Z"/><path fill="url(#b)" d="m41.33 219.445 14.113-28.835 46.464 22.683-14.113 28.835-46.464-22.683Z"/><path fill="#505F98" d="m55.426 190.826 14.114-28.835 46.464 22.683-14.114 28.835-46.464-22.683Z"/><path fill="url(#c)" d="m55.426 190.826 14.114-28.835 46.464 22.683-14.114 28.835-46.464-22.683Z"/><path fill="#505F98" d="m69.563 162.237 14.113-28.835 46.464 22.683-14.113 28.835-46.465-22.683Z"/><path fill="url(#d)" d="m69.563 162.237 14.113-28.835 46.464 22.683-14.113 28.835-46.465-22.683Z"/><path fill="#505F98" d="m83.668 133.599 14.114-28.835 46.464 22.683-14.113 28.835-46.465-22.683Z"/><path fill="#505F98" d="m97.784 105.01 14.113-28.835 46.465 22.683-14.114 28.835-46.464-22.683Z"/><path fill="#505F98" d="m111.881 76.391 14.113-28.835 46.464 22.683-14.113 28.835-46.464-22.683Z"/><path fill="url(#e)" d="m96.196 108.598 14.113-28.835 46.465 22.683-14.114 28.835-46.464-22.683Z"/><path fill="url(#f)" d="m110.321 79.97 14.113-28.835 46.464 22.682-14.113 28.835-46.464-22.683Z"/><path fill="#505F98" d="M410.837 573h98.068v82h-98.068v-82Z"/><path fill="url(#g)" d="M410.837 573h98.068v82h-98.068v-82Z"/><path fill="#505F98" d="M202.693 240.37a9.37 9.37 0 0 1 9.37-9.37h499.619a9.37 9.37 0 0 1 9.37 9.37v336.26a9.37 9.37 0 0 1-9.37 9.37H212.063a9.37 9.37 0 0 1-9.37-9.37V240.37Z"/><path fill="url(#h)" d="M704.04 260.438v294.124a18.381 18.381 0 0 1-5.347 13.026 18.352 18.352 0 0 1-12.99 5.412H234.039a18.367 18.367 0 0 1-12.983-5.418 18.403 18.403 0 0 1-5.354-13.02V260.438a18.403 18.403 0 0 1 5.354-13.02A18.367 18.367 0 0 1 234.039 242h451.664a18.352 18.352 0 0 1 12.99 5.412 18.381 18.381 0 0 1 5.347 13.026Z" opacity=".65"/><path fill="#505F98" d="M365.806 645h206.143v21H365.806v-21Z"/><path fill="url(#i)" d="M410.837 633h98.068v12h-98.068v-12Z"/><path fill="#505F98" fill-rule="evenodd" d="M565.945 59.241v20.474l-12.71.104a57.144 57.144 0 0 1-10.538 26.362l10.855 11.17-14.88 14.249-10.686-11.022a59.2 59.2 0 0 1-21.856 9.136V143h-20.571v-12.971a58.032 58.032 0 0 1-24.47-9.535l-8.936 8.822-14.564-14.669 8.873-8.654a57.658 57.658 0 0 1-10.37-26.278h-14.247V59.24h14.753a57.197 57.197 0 0 1 10.538-22.422l-8.24-8.487 14.88-14.25 8.43 8.738a55.94 55.94 0 0 1 23.184-8.738V0h20.571v14.396a59.327 59.327 0 0 1 23.184 10.08l10.538-10.31 14.48 14.543-10.538 10.478a57.776 57.776 0 0 1 8.641 20.054h13.679ZM459.803 72.15c-.023 19.061 15.5 34.532 34.671 34.555a34.752 34.752 0 0 0 24.577-10.06 34.351 34.351 0 0 0 10.178-24.412c.024-19.06-15.499-34.532-34.67-34.555-19.172-.023-34.732 15.41-34.756 34.472Z" clip-rule="evenodd"/><path fill="#505F98" fill-rule="evenodd" d="m641.997 93.354-.918 12.042-7.513-.458a33.636 33.636 0 0 1-7.283 15.02l5.864 7.063-9.349 7.708-5.759-6.937a34.776 34.776 0 0 1-13.189 4.396l-.605 7.812-12.041-.896.584-7.625a33.981 33.981 0 0 1-13.898-6.687l-5.634 4.791-7.868-9.187 5.572-4.708a33.945 33.945 0 0 1-4.904-15.896l-8.118-.625.898-12.021 8.618.646a34.03 34.03 0 0 1 7.116-12.73l-4.445-5.354L578.474 62l4.529 5.5a33.007 33.007 0 0 1 13.919-4.167l.626-8.333 12.041.896-.647 8.479a34.403 34.403 0 0 1 13.063 6.938l6.616-5.605 7.846 9.188-6.678 5.687a33.512 33.512 0 0 1 4.174 12.188l8.034.583ZM579.3 96.243c-.855 11.193 7.537 20.96 18.749 21.819a20.347 20.347 0 0 0 14.84-4.834 20.285 20.285 0 0 0 7.03-13.915c.842-11.194-7.561-20.952-18.773-21.8-11.212-.847-20.991 7.537-21.846 18.73Z" clip-rule="evenodd"/><path fill="url(#j)" d="M704.04 260.513V267H215.702v-6.487a18.518 18.518 0 0 1 5.354-13.073 18.335 18.335 0 0 1 12.985-5.44h451.66a18.316 18.316 0 0 1 12.991 5.434 18.492 18.492 0 0 1 5.348 13.079Z"/><path fill="url(#k)" d="M225.709 299h47.033v227h-47.033V299Z"/><path fill="url(#l)" d="M343.791 315h221.153v209H343.791V315Z"/><path fill="url(#m)" d="M394.826 413h7.005v9h-7.005v-9Z"/><path fill="url(#n)" d="M394.826 371h7.005v9h-7.005v-9Z"/><path fill="url(#o)" d="M299.76 413h7.005v9h-7.005v-9Z"/><path fill="url(#p)" d="M299.76 371h7.005v9h-7.005v-9Z"/><path fill="url(#q)" d="M394.826 326h7.005v9h-7.005v-9Z"/><path fill="url(#r)" d="M300.761 326h7.005v9h-7.005v-9Z"/><path fill="url(#s)" d="M348.794 326h7.005v9h-7.005v-9Z"/><path fill="url(#t)" d="M348.794 413h7.005v9h-7.005v-9Z"/><path fill="#505F98" fill-rule="evenodd" d="M312.769 411h78.054v-73h-78.054v73Zm70.192-7.718h-62.33v-57.626h62.33v57.626Z" clip-rule="evenodd"/><path fill="url(#u)" fill-rule="evenodd" d="M312.769 411h78.054v-73h-78.054v73Zm70.192-7.718h-62.33v-57.626h62.33v57.626Z" clip-rule="evenodd"/><path fill="url(#v)" d="M596.966 279h100.069v100H596.966V279Z"/><path fill="url(#w)" d="M596.966 389h100.069v100H596.966V389Z"/><path fill="url(#x)" d="M225.709 298h47.033v13h-47.033v-13Z" opacity=".65"/><path fill="#fff" d="M22.673 229.827 227.8 65.293l48.113 59.825L70.785 289.652l-48.112-59.825Z"/><path fill="#505F98" d="m51.397 234.455 25.067-20.22 32.582 40.287-25.067 20.22-32.582-40.287Z"/><path fill="url(#y)" d="m51.397 234.455 25.067-20.22 32.582 40.287-25.067 20.22-32.582-40.287Z"/><path fill="#505F98" d="m75.014 214.689 25.033-20.129 32.434 40.23-25.032 20.129-32.435-40.23Z"/><path fill="url(#z)" d="m75.014 214.689 25.033-20.129 32.434 40.23-25.032 20.129-32.435-40.23Z"/><path fill="#505F98" d="m99.958 194.761 25.032-20.128 32.435 40.23-25.032 20.128-32.435-40.23Z"/><path fill="url(#A)" d="m99.958 194.761 25.032-20.128 32.435 40.23-25.032 20.128-32.435-40.23Z"/><path fill="#505F98" d="m124.886 174.847 25.032-20.129 32.435 40.23-25.032 20.129-32.435-40.23Z"/><path fill="url(#B)" d="m124.886 174.847 25.032-20.129 32.435 40.23-25.032 20.129-32.435-40.23Z"/><path fill="#505F98" d="m151.006 154.389 25.067-20.22 32.583 40.287-25.068 20.22-32.582-40.287ZM176.086 133.99l25.068-20.22 32.582 40.287-25.068 20.22-32.582-40.287Z"/><path fill="#505F98" d="m199.693 115.051 25.033-20.128 32.435 40.23-25.033 20.128-32.435-40.23Z"/><path fill="url(#C)" d="M229.712 158.218 208.613 175l-31.938-40.218L197.774 118l31.938 40.218Z"/><path fill="url(#D)" d="m196.736 117.648 25.032-20.129 32.435 40.23-25.032 20.129-32.435-40.23Z"/><path fill="#505F98" d="M145.653 239.15V362h-21.014V239.15c0-4.54 2.818-8.58 7.018-10.061v-12.264c0-2.113 1.676-3.825 3.743-3.825 2.068 0 3.744 1.712 3.744 3.825v12.472c3.919 1.638 6.488 5.526 6.509 9.853Z"/><path fill="url(#E)" d="M145.653 239.15V362h-21.014V239.15c0-4.54 2.818-8.58 7.018-10.061v-12.264c0-2.113 1.676-3.825 3.743-3.825 2.068 0 3.744 1.712 3.744 3.825v12.472c3.919 1.638 6.488 5.526 6.509 9.853Z"/><path fill="#505F98" d="M111.63 319.245a2.245 2.245 0 0 1 2.245-2.245h45.545a2.245 2.245 0 0 1 2.245 2.245v4.51A2.245 2.245 0 0 1 159.42 326h-45.545a2.245 2.245 0 0 1-2.245-2.245v-4.51Z"/><path fill="#505F98" d="M136.336 399c-8.573 0-15.7-12.815-15.7-21.366V321h31.022v56.634c0 8.551-6.771 21.366-15.322 21.366Z"/><path fill="url(#F)" d="M111.63 319.245a2.245 2.245 0 0 1 2.245-2.245h45.545a2.245 2.245 0 0 1 2.245 2.245v4.51A2.245 2.245 0 0 1 159.42 326h-45.545a2.245 2.245 0 0 1-2.245-2.245v-4.51Z"/><path fill="url(#G)" d="M136.336 399c-8.573 0-15.7-12.634-15.7-21.063V326h31.022v51.937c0 8.429-6.771 21.063-15.322 21.063Z"/><path fill="#28353D" d="M336.428 459c-.674-3.564-1.099-8.61.195-8.957 2.728-.768-.195 8.957-.195 8.957Z"/><path fill="#606161" d="M479.687 654.507c-.486 12.595-10.248 58.881-10.565 71.497 0 4.198 1.12 10.643-.233 14.694-2.789 8.586-12.678 7.41-13.967 2.351l-.486-2.519c-4.586-24.518 2.789-52.332 0-84.344-1.67-19.543-9.446-57.223-14.538-57.475-2.684 0-63.941 129.14-69.266 137.096-2.621 4.01-9.995 3.38-13.566 6.613-3.571 3.232 29.752-97.905 43.719-151.35a169.07 169.07 0 0 0 6.339-33.818c.381-6.612-1.754-8.837 4.353-10.789 4.226-1.344 10.08-.966 14.601-1.281 4.924-.378 50.714-.462 50.714 2.771-.444 17.549 4.078 77.459 2.895 106.554Z"/><path fill="url(#H)" d="M479.687 654.507c-.486 12.595-10.248 58.881-10.565 71.497 0 4.198 1.12 10.643-.233 14.694-2.789 8.586-12.678 7.41-13.967 2.351l-.486-2.519c-4.586-24.518 2.789-52.332 0-84.344-1.67-19.543-9.446-57.223-14.538-57.475-2.684 0-63.941 129.14-69.266 137.096-2.621 4.01-9.995 3.38-13.566 6.613-3.571 3.232 29.752-97.905 43.719-151.35a169.07 169.07 0 0 0 6.339-33.818c.381-6.612-1.754-8.837 4.353-10.789 4.226-1.344 10.08-.966 14.601-1.281 4.924-.378 50.714-.462 50.714 2.771-.444 17.549 4.078 77.459 2.895 106.554Z"/><path fill="#FFCD9C" d="M425.614 386.148c-.385-3.985-2.268-6.148-4.108-6.148-1.839 0-2.973 2.12-2.588 6.148.087 2.974 2.331 5.449 5.305 5.852 1.862 0 1.797-1.866 1.391-5.852ZM458.008 386.159c.25-3.993 2.087-6.159 3.986-6.159s3.13 2.124 2.838 6.159c-.027 3.014-2.272 5.528-5.217 5.841-1.879 0-1.9-1.848-1.607-5.841Z"/><path fill="#F4AD7D" d="M461.732 403.672c-.259 2.105-9.174 11.328-19.319 11.328-10.146 0-18.521-8.423-20.291-11.792-1.77-3.369 5.353-46.703 9.476-50.324 4.123-3.622 20.831-1.243 22.234.674 3.367 4.527 9.001 41.712 7.9 50.114Z"/><path fill="#FFCD9C" d="M457.538 370.977c-1.379.662-6.795-13.135-7.931-15.452-1.135-2.317-.953-4.696.426-5.358 1.38-.662 3.408.704 4.544 3 1.136 2.296 4.32 17.169 2.961 17.81ZM427.168 369.987c-1.431-.486 2.357-14.808 3.183-17.284.826-2.475 2.68-4.104 4.03-3.617 1.35.487 1.914 2.898 1.088 5.395-.826 2.496-6.951 15.993-8.301 15.506Z"/><path fill="#F4AD7D" d="M432.845 402h21.763l3.262 20.622c-11.856 6.383-18.769 5.679-28.02-1.408L432.845 402Z"/><path fill="#F4AD7D" d="M441.859 406.13c0-.38.905-.7 2.001-.7 1.096 0 2.001.32 2.001.7 0 .38-.881.44-2.001.44-1.12 0-2.001-.04-2.001-.44Z"/><path fill="#606161" d="M462.892 396.808c.824-4.914 2.168-40.1-1.128-44.757-3.295-4.657-23.023-7.67-26.015-6.943-6.699 1.623-5.528 6.409-5.528 6.409-1.991.03-3.941.567-5.658 1.559-2.298 1.539-7.133 23.714-3.274 40.484 1.734 7.542 8.563 14.1 20.357 14.421 14.525.384 20.249-5.085 21.246-11.173Z"/><path fill="#606161" d="M435.831 346.762a7.47 7.47 0 0 1 5.599-1.721 48.524 48.524 0 0 1 17.935 3.335 22.165 22.165 0 0 1 8.42 5.332 11.027 11.027 0 0 1 2.968 9.326c-1.053 5.013-6.315 8.114-8.041 12.936-1.39 3.867-.4 7.605-.358 11.493a58.54 58.54 0 0 1-.674 9.389c-.968 6.054-6.504 11.492-20.713 11.131-11.451-.319-18.082-6.84-19.766-14.339a82.954 82.954 0 0 1 1.747-37.429 81.945 81.945 0 0 0 18.819 2.124 80.43 80.43 0 0 0 19.934-2.337c1.116 6.501 1.095 19.522.737 29.251"/><path fill="#505F98" d="M400.702 418.954a20.644 20.644 0 0 0-9.625 3.326c-4.938 3.891-5.313 11.15-5.229 17.468-.17 8.753.437 17.504 1.812 26.149 1.479 7.929 4.167 15.544 6.375 23.305a151.496 151.496 0 0 1 5.438 38.764c0 7.196-.125 15.104 4.354 20.731 4.896 6.109 13.563 7.301 21.355 7.741 11.063.648 22.167.732 33.23.271 7.417-.334 15.313-1.066 21.188-5.627 4.688-3.64 15.667-126.794 7.146-129.911-8.521-3.117-17.688-3.912-26.73-4.665-20.271-1.715-39.355-3.075-59.314 2.448Z"/><path fill="url(#I)" d="M464.521 674.291c-1.086 13.964-3.678 64.709-3.678 64.709l-6.605-.23c-4.536-24.38 2.759-52.038 0-83.871-1.652-19.434-9.343-56.903-14.381-57.153 1.505-12.525 9.97-10.646 9.97-10.646a182.977 182.977 0 0 1 15.865 29.078c5.037 13.192-.063 44.085-1.171 58.113Z"/><path fill="#505F98" d="M340.164 740.024a6.52 6.52 0 0 0-2.251 3.001 4.6 4.6 0 0 0 .271 2.94 8.568 8.568 0 0 0 5.984 4.585c2.576.49 5.215.581 7.819.268l8.341-.556a23.348 23.348 0 0 0 6.255-1.007 7.66 7.66 0 0 0 4.629-3.947c.492-1.392.683-2.87.563-4.339 0-6.805-2.418-12.335-9.967-10.67a50.018 50.018 0 0 0-21.644 9.725ZM478.703 743.063a5.953 5.953 0 0 1 2.067 2.734c.214.885.13 1.814-.24 2.649-1.062 2.138-3.092 3.668-5.483 4.133a23.145 23.145 0 0 1-7.159.255l-7.572-.509a21.455 21.455 0 0 1-5.68-.89 6.955 6.955 0 0 1-4.221-3.582 9.478 9.478 0 0 1-.522-3.921c0-6.147 2.176-11.212 9.117-9.644a45.86 45.86 0 0 1 19.693 8.775ZM487.891 421s32.715 19.163 42.541 43.389c9.825 24.225-32.18 82.611-32.18 82.611l-8.989-9.186s21.925-44.055 18.536-55.074c-3.39-11.019-16.669-21.288-16.669-21.288L487.891 421ZM394.826 458.859s-45.488 20.381-63.973 10.379c-18.485-10.001.545-60.238.545-60.238l12.379 4.202s-10.344 25.613 1.49 29.416c11.834 3.803 47.293-21.18 47.293-21.18l2.266 37.421Z"/><path fill="#F4AD7D" d="M480.466 545.976a9.156 9.156 0 0 0-3.085 3.321 7.567 7.567 0 0 0-.453 3.522c-.079 2.89 1.235 5.66 3.582 7.548a12.815 12.815 0 0 0 5.393 1.49c1.163.191 2.353.191 3.516 0 1.187-.211 2.178-.969 2.632-2.013a7.54 7.54 0 0 0 .194-2.013c.151-3.321 2.654-6.038 4.725-8.755.5-.525.823-1.176.927-1.872a3.303 3.303 0 0 0-.819-2.113c-1.403-1.892-4.876-5.374-7.659-5.073-2.783.302-6.795 4.308-8.953 5.958ZM351.585 401.435a6.945 6.945 0 0 0 1.187-2.737c.151-1.015-.386-2.011-1.341-2.487-1.516-.564-3.317.919-4.811.293a3.29 3.29 0 0 1-1.231-1.129 15.29 15.29 0 0 1-2.922-8.232 15.936 15.936 0 0 0-.439-4.68c-.445-1.577-2.028-2.614-3.735-2.445-1.407.313-2.198 1.671-3.076 2.758-.879 1.087-2.637 2.382-3.78 3.74a17.881 17.881 0 0 0-3.229 9.382c-.616 4.179-1.011 8.963 2.065 11.972 2.373 2.319 9.601 5.057 12.919 3.824 3.669-1.379 6.548-7.25 8.393-10.259Z"/><defs><linearGradient id="a" x1="151.402" x2="216.156" y1="315.166" y2="186.6" gradientUnits="userSpaceOnUse"><stop stop-color="#010101" stop-opacity=".01"/><stop offset=".95" stop-color="#010101"/></linearGradient><linearGradient id="b" x1="206.563" x2="299.417" y1="311.365" y2="129.775" gradientUnits="userSpaceOnUse"><stop stop-color="#010101" stop-opacity=".01"/><stop offset=".95" stop-color="#010101"/></linearGradient><linearGradient id="c" x1="326.545" x2="463.899" y1="320.092" y2="9.948" gradientUnits="userSpaceOnUse"><stop stop-color="#010101" stop-opacity=".01"/><stop offset=".95" stop-color="#010101"/></linearGradient><linearGradient id="d" x1="454.379" x2="659.309" y1="336.583" y2="-110.821" gradientUnits="userSpaceOnUse"><stop stop-color="#010101" stop-opacity=".01"/><stop offset=".36" stop-color="#010101" stop-opacity=".36"/><stop offset=".95" stop-color="#010101"/></linearGradient><linearGradient id="e" x1="305.726" x2="422.886" y1="231.564" y2="-10.031" gradientUnits="userSpaceOnUse"><stop stop-color="#fff" stop-opacity=".01"/><stop offset=".07" stop-color="#fff" stop-opacity=".22"/><stop offset=".16" stop-color="#fff" stop-opacity=".45"/><stop offset=".25" stop-color="#fff" stop-opacity=".65"/><stop offset=".33" stop-color="#fff" stop-opacity=".8"/><stop offset=".4" stop-color="#fff" stop-opacity=".91"/><stop offset=".46" stop-color="#fff" stop-opacity=".98"/><stop offset=".51" stop-color="#fff"/></linearGradient><linearGradient id="f" x1="227.65" x2="291.846" y1="178.444" y2="42.555" gradientUnits="userSpaceOnUse"><stop stop-color="#fff" stop-opacity=".01"/><stop offset=".07" stop-color="#fff" stop-opacity=".22"/><stop offset=".16" stop-color="#fff" stop-opacity=".45"/><stop offset=".25" stop-color="#fff" stop-opacity=".65"/><stop offset=".33" stop-color="#fff" stop-opacity=".8"/><stop offset=".4" stop-color="#fff" stop-opacity=".91"/><stop offset=".46" stop-color="#fff" stop-opacity=".98"/><stop offset=".51" stop-color="#fff"/></linearGradient><linearGradient id="g" x1="532.972" x2="543.393" y1="641.322" y2="514.584" gradientUnits="userSpaceOnUse"><stop stop-color="#010101" stop-opacity=".01"/><stop offset=".95" stop-color="#010101"/></linearGradient><linearGradient id="h" x1="131.259" x2="128.544" y1="178.517" y2="628.071" gradientUnits="userSpaceOnUse"><stop stop-color="#fff" stop-opacity=".01"/><stop offset=".07" stop-color="#fff" stop-opacity=".22"/><stop offset=".16" stop-color="#fff" stop-opacity=".45"/><stop offset=".25" stop-color="#fff" stop-opacity=".65"/><stop offset=".33" stop-color="#fff" stop-opacity=".8"/><stop offset=".4" stop-color="#fff" stop-opacity=".91"/><stop offset=".46" stop-color="#fff" stop-opacity=".98"/><stop offset=".51" stop-color="#fff"/></linearGradient><linearGradient id="i" x1="-122.395" x2="-122.295" y1="616.073" y2="758.306" gradientUnits="userSpaceOnUse"><stop stop-color="#010101" stop-opacity=".01"/><stop offset=".95" stop-color="#010101"/></linearGradient><linearGradient id="j" x1="1030.02" x2="1064.2" y1="361.966" y2="-45.145" gradientUnits="userSpaceOnUse"><stop stop-color="#fff" stop-opacity=".01"/><stop offset=".07" stop-color="#fff" stop-opacity=".22"/><stop offset=".16" stop-color="#fff" stop-opacity=".45"/><stop offset=".25" stop-color="#fff" stop-opacity=".65"/><stop offset=".33" stop-color="#fff" stop-opacity=".8"/><stop offset=".4" stop-color="#fff" stop-opacity=".91"/><stop offset=".46" stop-color="#fff" stop-opacity=".98"/><stop offset=".51" stop-color="#fff"/></linearGradient><linearGradient id="k" x1="203.138" x2="341.145" y1="251.87" y2="620.142" gradientUnits="userSpaceOnUse"><stop stop-color="#fff" stop-opacity=".01"/><stop offset=".07" stop-color="#fff" stop-opacity=".22"/><stop offset=".16" stop-color="#fff" stop-opacity=".45"/><stop offset=".25" stop-color="#fff" stop-opacity=".65"/><stop offset=".33" stop-color="#fff" stop-opacity=".8"/><stop offset=".4" stop-color="#fff" stop-opacity=".91"/><stop offset=".46" stop-color="#fff" stop-opacity=".98"/><stop offset=".51" stop-color="#fff"/></linearGradient><linearGradient id="l" x1="306.668" x2="303.343" y1="274.99" y2="557.698" gradientUnits="userSpaceOnUse"><stop stop-color="#fff" stop-opacity=".01"/><stop offset=".07" stop-color="#fff" stop-opacity=".22"/><stop offset=".16" stop-color="#fff" stop-opacity=".45"/><stop offset=".25" stop-color="#fff" stop-opacity=".65"/><stop offset=".33" stop-color="#fff" stop-opacity=".8"/><stop offset=".4" stop-color="#fff" stop-opacity=".91"/><stop offset=".46" stop-color="#fff" stop-opacity=".98"/><stop offset=".51" stop-color="#fff"/></linearGradient><linearGradient id="m" x1="622.503" x2="641.69" y1="466.704" y2="-111.215" gradientUnits="userSpaceOnUse"><stop stop-color="#010101" stop-opacity=".01"/><stop offset=".95" stop-color="#010101"/></linearGradient><linearGradient id="n" x1="621.651" x2="640.838" y1="467.045" y2="-110.875" gradientUnits="userSpaceOnUse"><stop stop-color="#010101" stop-opacity=".01"/><stop offset=".95" stop-color="#010101"/></linearGradient><linearGradient id="o" x1="527.472" x2="546.688" y1="464.354" y2="-113.565" gradientUnits="userSpaceOnUse"><stop stop-color="#010101" stop-opacity=".01"/><stop offset=".95" stop-color="#010101"/></linearGradient><linearGradient id="p" x1="526.62" x2="545.836" y1="464.694" y2="-113.224" gradientUnits="userSpaceOnUse"><stop stop-color="#010101" stop-opacity=".01"/><stop offset=".95" stop-color="#010101"/></linearGradient><linearGradient id="q" x1="620.712" x2="639.928" y1="468.545" y2="-109.373" gradientUnits="userSpaceOnUse"><stop stop-color="#010101" stop-opacity=".01"/><stop offset=".95" stop-color="#010101"/></linearGradient><linearGradient id="r" x1="526.682" x2="545.87" y1="466.236" y2="-111.683" gradientUnits="userSpaceOnUse"><stop stop-color="#010101" stop-opacity=".01"/><stop offset=".95" stop-color="#010101"/></linearGradient><linearGradient id="s" x1="574.672" x2="593.888" y1="467.396" y2="-110.501" gradientUnits="userSpaceOnUse"><stop stop-color="#010101" stop-opacity=".01"/><stop offset=".95" stop-color="#010101"/></linearGradient><linearGradient id="t" x1="576.488" x2="595.704" y1="464.843" y2="-113.075" gradientUnits="userSpaceOnUse"><stop stop-color="#010101" stop-opacity=".01"/><stop offset=".95" stop-color="#010101"/></linearGradient><linearGradient id="u" x1="231.41" x2="463.643" y1="479.399" y2="696.094" gradientUnits="userSpaceOnUse"><stop stop-color="#fff" stop-opacity=".01"/><stop offset=".07" stop-color="#fff" stop-opacity=".22"/><stop offset=".16" stop-color="#fff" stop-opacity=".45"/><stop offset=".25" stop-color="#fff" stop-opacity=".65"/><stop offset=".33" stop-color="#fff" stop-opacity=".8"/><stop offset=".4" stop-color="#fff" stop-opacity=".91"/><stop offset=".46" stop-color="#fff" stop-opacity=".98"/><stop offset=".51" stop-color="#fff"/></linearGradient><linearGradient id="v" x1="580.277" x2="578.492" y1="259.864" y2="395.026" gradientUnits="userSpaceOnUse"><stop stop-color="#fff" stop-opacity=".01"/><stop offset=".07" stop-color="#fff" stop-opacity=".22"/><stop offset=".16" stop-color="#fff" stop-opacity=".45"/><stop offset=".25" stop-color="#fff" stop-opacity=".65"/><stop offset=".33" stop-color="#fff" stop-opacity=".8"/><stop offset=".4" stop-color="#fff" stop-opacity=".91"/><stop offset=".46" stop-color="#fff" stop-opacity=".98"/><stop offset=".51" stop-color="#fff"/></linearGradient><linearGradient id="w" x1="580.277" x2="578.492" y1="369.864" y2="505.026" gradientUnits="userSpaceOnUse"><stop stop-color="#fff" stop-opacity=".01"/><stop offset=".07" stop-color="#fff" stop-opacity=".22"/><stop offset=".16" stop-color="#fff" stop-opacity=".45"/><stop offset=".25" stop-color="#fff" stop-opacity=".65"/><stop offset=".33" stop-color="#fff" stop-opacity=".8"/><stop offset=".4" stop-color="#fff" stop-opacity=".91"/><stop offset=".46" stop-color="#fff" stop-opacity=".98"/><stop offset=".51" stop-color="#fff"/></linearGradient><linearGradient id="x" x1="216.437" x2="216.42" y1="295.281" y2="313.481" gradientUnits="userSpaceOnUse"><stop stop-color="#fff" stop-opacity=".01"/><stop offset=".07" stop-color="#fff" stop-opacity=".22"/><stop offset=".16" stop-color="#fff" stop-opacity=".45"/><stop offset=".25" stop-color="#fff" stop-opacity=".65"/><stop offset=".33" stop-color="#fff" stop-opacity=".8"/><stop offset=".4" stop-color="#fff" stop-opacity=".91"/><stop offset=".46" stop-color="#fff" stop-opacity=".98"/><stop offset=".51" stop-color="#fff"/></linearGradient><linearGradient id="y" x1="135.737" x2="249.168" y1="348.052" y2="258.635" gradientUnits="userSpaceOnUse"><stop stop-color="#010101" stop-opacity=".01"/><stop offset=".95" stop-color="#010101"/></linearGradient><linearGradient id="z" x1="185.575" x2="346.852" y1="367.988" y2="242.867" gradientUnits="userSpaceOnUse"><stop stop-color="#010101" stop-opacity=".01"/><stop offset=".95" stop-color="#010101"/></linearGradient><linearGradient id="A" x1="290.519" x2="546.684" y1="426.751" y2="204.028" gradientUnits="userSpaceOnUse"><stop stop-color="#010101" stop-opacity=".01"/><stop offset=".95" stop-color="#010101"/></linearGradient><linearGradient id="B" x1="399.279" x2="774.962" y1="495.865" y2="177.45" gradientUnits="userSpaceOnUse"><stop stop-color="#010101" stop-opacity=".01"/><stop offset=".36" stop-color="#010101" stop-opacity=".36"/><stop offset=".95" stop-color="#010101"/></linearGradient><linearGradient id="C" x1="247.537" x2="430.477" y1="258.751" y2="127.322" gradientUnits="userSpaceOnUse"><stop stop-color="#fff" stop-opacity=".01"/><stop offset=".07" stop-color="#fff" stop-opacity=".22"/><stop offset=".16" stop-color="#fff" stop-opacity=".45"/><stop offset=".25" stop-color="#fff" stop-opacity=".65"/><stop offset=".33" stop-color="#fff" stop-opacity=".8"/><stop offset=".4" stop-color="#fff" stop-opacity=".91"/><stop offset=".46" stop-color="#fff" stop-opacity=".98"/><stop offset=".51" stop-color="#fff"/></linearGradient><linearGradient id="D" x1="261.151" x2="377.009" y1="256.517" y2="160.658" gradientUnits="userSpaceOnUse"><stop stop-color="#fff" stop-opacity=".01"/><stop offset=".07" stop-color="#fff" stop-opacity=".22"/><stop offset=".16" stop-color="#fff" stop-opacity=".45"/><stop offset=".25" stop-color="#fff" stop-opacity=".65"/><stop offset=".33" stop-color="#fff" stop-opacity=".8"/><stop offset=".4" stop-color="#fff" stop-opacity=".91"/><stop offset=".46" stop-color="#fff" stop-opacity=".98"/><stop offset=".51" stop-color="#fff"/></linearGradient><linearGradient id="E" x1="126.738" x2="164.923" y1="422.745" y2="422.767" gradientUnits="userSpaceOnUse"><stop stop-color="#fff" stop-opacity=".01"/><stop offset=".07" stop-color="#fff" stop-opacity=".22"/><stop offset=".16" stop-color="#fff" stop-opacity=".45"/><stop offset=".25" stop-color="#fff" stop-opacity=".65"/><stop offset=".33" stop-color="#fff" stop-opacity=".8"/><stop offset=".4" stop-color="#fff" stop-opacity=".91"/><stop offset=".46" stop-color="#fff" stop-opacity=".98"/><stop offset=".51" stop-color="#fff"/></linearGradient><linearGradient id="F" x1="53.446" x2="65.097" y1="325.2" y2="363.932" gradientUnits="userSpaceOnUse"><stop stop-color="#010101" stop-opacity=".01"/><stop offset=".95" stop-color="#010101"/></linearGradient><linearGradient id="G" x1="78.244" x2="179.146" y1="473.933" y2="475.976" gradientUnits="userSpaceOnUse"><stop stop-color="#010101" stop-opacity=".01"/><stop offset=".95" stop-color="#010101"/></linearGradient><linearGradient id="H" x1="481.015" x2="384.922" y1="631.512" y2="466.732" gradientUnits="userSpaceOnUse"><stop stop-color="#010101" stop-opacity=".01"/><stop offset=".95" stop-color="#010101"/></linearGradient><linearGradient id="I" x1="482.037" x2="309.151" y1="169.892" y2="174.761" gradientUnits="userSpaceOnUse"><stop stop-color="#010101" stop-opacity=".01"/><stop offset=".95" stop-color="#010101"/></linearGradient></defs></svg>